<?xml version="1.0" encoding="UTF-8"?>
<svg id="Layer_1" data-name="Layer 1" xmlns="http://www.w3.org/2000/svg" viewBox="0 0 574.88 531.68">
  <defs>
    <style>
      .cls-1 {
        fill: #d64b57;
      }

      .cls-1, .cls-2 {
        stroke-width: 0px;
      }

      .cls-2 {
        fill: #333;
      }
    </style>
  </defs>
  <g>
    <path class="cls-1" d="m490.44,203c0,62.56-28.29,118.5-72.78,155.71-8.82,7.41-18.29,14.07-28.29,19.87-4.07-.13-8.11-.27-12.18-.4-29.97-.92-59.89-1.39-89.81-1.43-29.88,0-59.76.48-89.69,1.39-4.09.11-8.15.25-12.24.4-9.97-5.78-19.42-12.41-28.2-19.8-44.5-37.21-72.82-93.17-72.82-155.75C84.43,90.88,175.31,0,287.44,0s203,90.88,203,203Z"/>
    <g>
      <path class="cls-2" d="m498.73,56.14c-9.37,3.7-18.92,7.12-28.5,10.52-9.68,3.09-19.47,5.98-29.32,8.78-4.93,1.39-9.93,2.48-14.91,3.68-5,1.16-10,2.41-15.03,3.51-40.28,8.5-81.9,12.73-123.52,12.93-41.62-.19-83.24-4.43-123.52-12.93-5.02-1.11-10.02-2.35-15.03-3.51-4.98-1.2-9.98-2.29-14.91-3.68-9.85-2.81-19.65-5.69-29.32-8.78-9.58-3.4-19.13-6.82-28.5-10.52-9.3-3.97-18.5-8.06-27.43-12.58l60.25,87.42c3.82.32,7.62.69,11.44.99,11.25.74,22.43,1.47,33.58,2.31.57.04,1.13.07,1.7.1v19.45c2.02,1.32,4.05,2.6,6.05,3.84,12.07,7.5,24.15,14.09,35.95,19.59v-40.62c22.95,1.01,45.86,1.65,68.75,1.82,7.01.08,13.99.08,21,.06,7.01.02,13.99.02,21-.06,22.89-.18,45.8-.81,68.75-1.82v40.62c11.8-5.5,23.88-12.09,35.95-19.59,2-1.24,4.03-2.52,6.05-3.84v-19.45c.57-.04,1.13-.07,1.7-.1,11.15-.84,22.34-1.57,33.58-2.31,3.82-.31,7.62-.67,11.44-.99l60.25-87.42c-8.94,4.52-18.14,8.61-27.43,12.58Z"/>
      <path class="cls-2" d="m460.98,138.13v52.08c-13.99,9.62-27.93,18.18-41.79,25.64v133.45l-2.48-.42c-3.47-.59-6.93-1.16-10.41-1.68-9.62-1.41-19.07-2.63-28.06-3.61-.34-.04-.71-.08-1.05-.11v-108.27c-23.16,8.88-46.13,14.68-68.75,17.32-7.04.82-14.03,1.36-21,1.57-6.97-.21-13.96-.74-21-1.57-22.62-2.63-45.59-8.44-68.75-17.32v108.29c-.34.04-.71.08-1.05.11-9.22,1.03-18.69,2.25-28.18,3.63-3.61.55-7.2,1.16-10.81,1.76l-1.97.32v-133.47c-13.86-7.46-27.8-16.02-41.79-25.64v-52.08c14.09,10.98,28.03,20.75,41.79,29.27,14.17,8.8,28.16,16.29,42,22.45,23.33,10.44,46.24,17.22,68.75,20.29,7.04.97,14.03,1.58,21,1.83,6.97-.25,13.96-.86,21-1.83,22.51-3.07,45.42-9.85,68.75-20.29,13.84-6.17,27.84-13.65,42-22.45,13.77-8.51,27.7-18.29,41.79-29.27Z"/>
    </g>
    <path class="cls-2" d="m519.35,383.88c-9.85-.13-19.63-.48-29.36-1.03-9.76-.31-19.47-.78-29.17-1.32-9.7-.36-19.38-.76-29.04-1.3-4.2-.13-8.38-.29-12.58-.44-5.46-.23-10.92-.46-16.36-.73-4.49-.17-8.97-.32-13.46-.48-4.07-.13-8.11-.27-12.18-.4-29.97-.92-59.89-1.39-89.81-1.43-29.88,0-59.76.48-89.69,1.39-4.09.11-8.15.25-12.24.4-4.49.13-8.99.31-13.5.48-5.4.27-10.84.5-16.27.71-4.24.17-8.46.32-12.7.46-9.64.53-19.32.94-29.04,1.32-9.68.53-19.4.99-29.15,1.32-9.74.55-19.51.92-29.38,1.05,9.3-3.17,18.67-6.13,28.1-8.9,9.45-2.6,18.98-4.98,28.5-7.35,9.58-2.12,19.19-4.14,28.81-6.05,4.83-.92,9.66-1.7,14.51-2.5l.34-.06c.52-.1,1.05-.17,1.57-.27,4.2-.71,8.4-1.43,12.62-2.06,9.24-1.36,18.52-2.56,27.82-3.59,29.76-3.32,59.74-4.94,89.69-4.96,30.01-.02,60.01,1.62,89.81,4.94,9.26,1.01,18.5,2.21,27.72,3.57,4.26.63,8.5,1.36,12.75,2.06.52.1,1.01.19,1.53.27.08.02.17.02.25.04,4.85.84,9.68,1.6,14.51,2.52,9.62,1.91,19.24,3.93,28.81,6.05,9.53,2.37,19.05,4.77,28.5,7.37,9.43,2.77,18.81,5.73,28.08,8.92Z"/>
  </g>
  <g>
    <path class="cls-1" d="m22.14,407.69h2.71l3.82,2.71.08-1.35c4.83.9,8.25,3.16,10.27,6.77,3.13,0,6.37,9.48,9.72,28.43l18.71-28.43,1.43-1.35h1.35l-.08,1.35-19.19,33.84h2.71c14.18-27.98,22.62-41.97,25.32-41.97l3.82,2.71.08-1.35c3.88,0,8.47,4.51,13.78,13.54l-.4,4.06-1.43,1.35,1.19,1.35-.48,5.42h-2.71l1.99,8.12-2.63,14.89-.4,4.06,1.27,1.35-.16,1.35-2.87,2.71,2.39,2.71-2.87,2.71,2.39,2.71-1.43,1.35h-1.35l1.27,1.35-3.34,37.91c-2.71,0-4.17,1.35-4.38,4.06-2.71,0-4.27,2.26-4.7,6.77h-4.06l-7.64-5.41,2.07-8.12-1.99-8.12,9.16-58.21c-4.51,4.73-9.45,14.65-14.81,29.78-.48,5.26-2.6,8.87-6.37,10.83h-1.35l.08-1.35,1.51-1.35.16-1.35-1.27-1.35,2.95-2.71.32-4.06h-2.71c-.37,4.94-2.5,8.55-6.37,10.83h-1.35l-6.13-6.77c-2.39,0-3.82-4.06-4.3-12.18-4.62-9.4-6.74-16.17-6.37-20.31h-1.35l-2.79,16.25-.95,10.83-1.67,4.06.72,6.77-2.55,29.78c-1.81,0-2.84,1.35-3.11,4.06l-7.33,6.77h-1.35l-9.16-4.06,1.99-6.77-.08-14.89.56-6.77,1.43-1.35-1.19-1.35.16-1.35c1.22-13.8,3.87-28.7,7.96-44.68h1.35l-1.27-1.35.16-1.35,1.83-5.41-.96-5.42.16-1.35h1.35l-.24,2.71h1.35l.4-4.06-1.27-1.35,4.94-9.48.32-4.06-1.51,1.35h-1.35l-1.19-1.35.32-4.06h1.35l1.27,1.35h1.35l2.95-2.71Zm33.92,60.92l1.03,4.06h1.35c.37-4.83,5.94-17.01,16.72-36.55l1.91-6.77c-6.74,8.39-13.75,21.48-21.02,39.26Zm16.25-62.27h2.71l-.24,2.71-3.19,5.42-1.19-1.35h-1.35l3.27-6.77Zm-.96,104.24l-.96,10.83h1.35l1.99-6.77-1.03-4.06h-1.35Zm8.84-70.4l-1.43,1.35-3.03,33.85h1.35l3.9-28.43-1.27-1.35h1.35l-1.19-1.35.08-1.35,1.51-1.35.08-1.35h-1.35Z"/>
    <path class="cls-1" d="m162.53,404.82h1.35v2.71l1.35-1.35h1.35c6.32,2.12,9.48,3.93,9.48,5.42l-6.77,8.12h2.71c3.61-1.86,5.42-4.11,5.42-6.77h4.06v1.35l-1.35,1.35,1.35,1.35v1.35c-32.07,34.51-47.73,62.01-46.98,82.5l-2.71,13.46,1.35,1.35v1.35l-6.77,12.18-10.83-1.35v-10.83l-4.06-5.34v-2.71l1.35-16.24,1.35,1.35h1.35l-1.35-1.35v-1.35l1.35-1.35v-1.35l-1.35-1.35,4.06-1.35-1.35,6.77v5.42h1.35l1.59-16.33-1.35-4.06h-1.35v4.06h-1.35l-1.35-10.83,1.35-1.35v-1.35l-18.63-47.54v-2.71h2.71l-2.71-6.77,1.35-1.35h2.71c2.07,0,3.42,2.26,4.06,6.77l4.06-2.71h4.06c0,5.58,4.86,17.36,14.57,35.36,5.2-9.88,9.72-15.74,13.54-17.6v1.35c-9.03,11.47-13.54,18.24-13.54,20.31v1.35h1.35l31.85-43.16v-1.35l-15.61,16.09v-1.35l16.96-20.15Zm-42.92,114.91v5.42h1.35v-5.42h-1.35Zm44.28-94.61c-19.43,24.9-29.15,39.29-29.15,43.16h2.71c7.8-15.02,17.07-29.41,27.79-43.16h-1.35Zm-18.32,1.19v1.35l-2.71,2.71v-1.35l2.71-2.71Z"/>
    <path class="cls-2" d="m241.53,405.86v6.77h4.06v-4.06h5.42c-8.71,73.9-17.84,110.85-27.39,110.85,0,1.8-4.51,4.06-13.54,6.77l-1.35-1.35h-1.35l-6.77,1.35-1.35-1.35v1.35c-9.03,0-13.54-4.06-13.54-12.18l-9.48-4.06v-4.06l1.35,1.35h4.06v-1.35c-.43-11.73-1.33-17.6-2.71-17.6l2.71-8.12c2.44,0,5.15-1.35,8.12-4.06h5.42l1.35,8.12h2.71v-2.71l-1.35-1.35v-1.35l1.35-1.35h2.71c0,2.71,1.35,4.06,4.06,4.06l-1.35,9.48v4.06c.58,5.42,1.94,8.12,4.06,8.12l4.06-12.18,1.35,1.35h2.71c4.03,0,9.11-25.67,15.21-77l1.35-8.12,1.35-1.35h6.77Zm-59.88,75.65v6.77h1.35v-6.77h-1.35Zm35.2-5.42h1.35c0,2.71.9,4.06,2.71,4.06,0,1.81-1.35,2.71-4.06,2.71l1.35,1.35v1.35l-2.71,2.71h1.35l1.35-1.35v2.71l-4.06,1.35v-1.35l2.71-13.54Zm1.35-6.77h1.35v5.41h-1.35v-5.41Z"/>
    <path class="cls-2" d="m303.49,404.03l-.16,2.71h-4.06l-.08,1.35h1.35l25.8-1.35h5.42l-.08,1.35-2.79,2.71,1.28,1.35-.08,2.71c-.16,4.67-1.62,7.38-4.38,8.12l1.27,4.06-1.59,4.06-1.28-1.35h-1.35c-12.64.64-18.98,1.54-19.04,2.71l-1.35-1.35c-15.45,2.44-23.28,6.96-23.49,13.54l-.4,10.83,32.57-2.71,1.35,1.35-.08,1.35h-6.77l-.08,1.35c4.51,0,6.71.9,6.61,2.71v1.35c-.16,4.51-1.14,6.77-2.95,6.77h-8.12l-.08,1.35h9.48l-.08,2.71c-.06,1.54-11.47,4.7-34.24,9.48l-1.91,14.89,1.35,1.35v1.35l-1.43,1.35-.08,1.35,1.19,4.06h-1.35l1.19,4.06c.32,3.82-2.84,10.83-9.48,21.02l-10.83-1.35,1.83-13.54c-3.45,0-5.18-1.67-5.18-5.02v-.4c1.38-2.28,3.03-16.51,4.94-42.68h2.71l-1.27-1.35,1.75-10.83,1.27,1.35h1.35l1.91-13.54.24-5.42c-4.51,0-6.77-.9-6.77-2.71l2.87-4.06c-3.61,0-5.34-1.35-5.18-4.06.27-8.12,1.75-12.18,4.46-12.18,4.51,0,6.85-2.26,7.01-6.77h1.35l1.27,1.35,2.87-2.71h4.06l3.9,4.06,23.33-6.77Zm-44.92,75.81l-.56,14.89h1.35l.56-14.89h-1.35Zm1.99,38.62l-.24,5.42h1.35l.24-5.42h-1.35Zm33.92-92.77v1.35h1.35l27.08-2.71.08-1.35-3.98-1.35-1.43,1.35h-1.35l-1.28-1.35-20.47,4.06Zm12.74-14.89l-.08,1.35h4.06l14.97-1.35v-1.35h-8.13l-10.83,1.35Z"/>
    <path class="cls-2" d="m402.71,408.25l6.53,4.54c-1.91,8.02-5.36,11.86-10.35,11.55l-35.36,1.59-.16,2.71,6.69.48,8.2-.8,1.27,1.51,1.35.08,9.55-.8,2.71.24-.08,1.35-31.45,3.26-2.47,17.52,1.35.08,36.79-2.95,1.19,1.43-.08,1.35-2.71-.24v1.35l9.31,2.07-.08,1.35c-1.96,5.04-14.92,9.13-38.86,12.26l-13.62.48,1.27,1.35-6.53,17.2h-1.35l.8-12.18-1.35-.08-2.63,18.79c27.02-3.61,46.11-5.04,57.25-4.3l6.61,1.83-.08,2.71-2.71-.16,1.19,1.43-.24,4.06c-2.6,3.4-8.13,4.83-16.57,4.3l-.08,1.35,10.83.72-.24,2.71-62.99,9.24-1.35-.08c-4.35-.96-6.53-2.36-6.53-4.22v-.24l.24-4.06,3.74-14.65-1.28-1.43,2.71.08-.48,6.77,1.35.16c.53-4.51,1.6-6.69,3.19-6.53l-1.28-1.51.96-13.46-2.71-.24-1.83,6.69,1.51-1.28,1.35.08-.56,8.12-1.35-.16.24-3.98-1.35-.08-.16,2.71-1.35-.08.16-2.71,4.3-22.85-1.35-.08,3.1-6.53-1.27-1.43.08-1.35,2.95-22.85,1.27,1.43,1.35.08.16-2.71-.87-6.85,2.15-12.1.24-4.06,1.35.16,1.28,1.43,1.43-1.27,1.35.16,1.28,1.35,1.43-1.27,4.06.32,47.54-.88Zm-67.77,59.17l-.64,9.48,1.35.08.64-9.4-1.35-.16Zm44.67,1.75h1.35l-.16,1.35-24.53,2.47-1.27-1.51.08-1.27,12.26-.56-.08,1.35,12.34-1.83Z"/>
    <path class="cls-2" d="m453.12,406.26c2.39,1.81,9.98,2.71,22.78,2.71l-.08,1.35h-9.48l-.08,1.35c11.31,0,18.37,2.71,21.18,8.12l-.16,2.71h-6.77l-.08,1.35,9.4,1.35-.08,1.35h-8.12l-.08,1.35c2.71,0,4.01.9,3.9,2.71-16.09,0-30.45,5.87-43.08,17.6l-.08,1.35c17.47,4.67,31.3,15.05,41.49,31.14l-.08,1.35c-3.29,11.68-12.5,22.51-27.63,32.49l-8.28,1.35-.08,1.35h2.71c-.11,2.44-8.39,5.15-24.85,8.12l.16-2.71h6.77l.16-1.35c-5.79,0-11.02-3.16-15.69-9.48-4.04-2.07-6.06-6.02-6.06-11.87,0-.53.03-1.09.08-1.67l4.22-2.71,3.9,2.71h2.71c25.49-3.98,38.62-12.1,39.42-24.37-10.67-5.42-17.73-8.12-21.18-8.12l-.08,1.35-13.3-5.42,1.28,1.35-.08,2.71c-11.26-8.28-16.75-14.6-16.49-18.95l10.59-18.95,7.09-5.42-.16,2.71,24.21-18.95Zm-18.95,112.36l-.08,1.35h5.42l6.85-1.35v-1.35h-1.35l-10.83,1.35Zm.48-75.81l-.08,1.35,23.89-14.89,10.99-2.71.16-2.71h-2.71c-14.28,5.31-25.03,11.63-32.25,18.95Zm7.49,55.5h1.35l2.87-2.71h-1.35l-2.87,2.71Zm7.41,10.83v1.35h1.35l5.65-4.06-7.01,2.71Zm16.96-10.83l-5.81,6.77h1.35l5.81-6.77h-1.35Z"/>
    <path class="cls-2" d="m570.81,405.78l4.06,1.35v2.71h-4.06l2.71,4.06c-1.96,4.51-9.19,6.77-21.66,6.77l-9.48,1.35-1.35,4.06h1.35c-2.71,6.42-8.12,35.31-16.25,86.64l4.06,17.6h-1.35c-2.02,0-3.82-4.51-5.42-13.54l1.35-13.54v-1.35h-1.35v2.71c-2.71,0-4.06.9-4.06,2.71v1.35l2.71,21.66v1.35h-2.71l-5.42-4.06-1.35,1.35h-1.35c-3.61-7.8-5.42-14.57-5.42-20.31l1.35,1.35h1.35l-2.71-9.48,4.06-1.35v-6.77h-2.71v-1.35c2.71,0,4.06-.9,4.06-2.71v-1.35h-2.71c0-7.22,1.35-10.83,4.06-10.83v-17.6c1.43-1.27,3.24-10.75,5.42-28.43l-9.48,1.35-18.95-1.35v-1.35l6.77-1.35v1.35l1.35-1.35h20.31v-4.06l-21.66,2.71-1.35-1.35h-1.35l-8.13,1.35-4.06-2.71,1.35-6.77-1.35-1.35c0-4.51,5.42-6.77,16.25-6.77l73.1-2.71Zm-58.21,79.87l-2.71,29.78h2.71l-1.35-6.77v-2.71l2.71-4.06h-1.35l1.35-1.35v-1.35l-1.35-1.35v-1.35l2.71-5.42-1.35-5.42h-1.35Zm50.09-75.81v1.35h5.42v-1.35h-5.42Z"/>
  </g>
</svg>